HIERARCHY
ROOT Hips
{
 OFFSET 0.000000 0.000000 0.000000
 CHANNELS 6 Xposition Yposition Zposition Yrotation Xrotation Zrotation
 JOINT Chest
 {
  OFFSET 0.000000 9.585900 0.002600
  CHANNELS 3 Yrotation Xrotation Zrotation
  JOINT Chest2
  {
   OFFSET 0.000000 9.601200 -0.005300
   CHANNELS 3 Yrotation Xrotation Zrotation
   JOINT Chest3
   {
    OFFSET 0.000000 9.561800 0.000000
    CHANNELS 3 Yrotation Xrotation Zrotation
    JOINT Chest4
    {
     OFFSET 0.000000 9.552100 0.000000
     CHANNELS 3 Yrotation Xrotation Zrotation
     JOINT Neck
     {
      OFFSET 0.000000 14.453000 0.000000
      CHANNELS 3 Yrotation Xrotation Zrotation
      JOINT Head
      {
       OFFSET 0.000000 8.936500 -0.011300
       CHANNELS 3 Yrotation Xrotation Zrotation
       End Site
       {
        OFFSET 0.000000 17.073600 -0.006000
       }
      }
     }
     JOINT RightCollar
     {
      OFFSET -2.921100 9.558500 0.000000
      CHANNELS 3 Yrotation Xrotation Zrotation
      JOINT RightShoulder
      {
       OFFSET -13.519700 0.000000 0.000000
       CHANNELS 3 Yrotation Xrotation Zrotation
       JOINT RightElbow
       {
        OFFSET 0.000000 -29.696600 0.000000
        CHANNELS 3 Yrotation Xrotation Zrotation
        JOINT RightWrist
        {
         OFFSET 0.000000 -24.004700 0.000000
         CHANNELS 3 Yrotation Xrotation Zrotation
         End Site
         {
          OFFSET 0.000000 -17.728500 0.000000
         }
        }
       }
      }
     }
     JOINT LeftCollar
     {
      OFFSET 2.921100 9.558500 0.000000
      CHANNELS 3 Yrotation Xrotation Zrotation
      JOINT LeftShoulder
      {
       OFFSET 13.519700 0.000000 0.000000
       CHANNELS 3 Yrotation Xrotation Zrotation
       JOINT LeftElbow
       {
        OFFSET 0.000000 -29.696600 0.000000
        CHANNELS 3 Yrotation Xrotation Zrotation
        JOINT LeftWrist
        {
         OFFSET 0.000000 -24.004700 0.000000
         CHANNELS 3 Yrotation Xrotation Zrotation
         End Site
         {
          OFFSET 0.000000 -17.728500 0.000000
         }
        }
       }
      }
     }
    }
   }
  }
 }
 JOINT RightHip
 {
  OFFSET -7.771700 -0.012900 -0.001300
  CHANNELS 3 Yrotation Xrotation Zrotation
  JOINT RightKnee
  {
   OFFSET 0.000000 -40.869800 0.001200
   CHANNELS 3 Yrotation Xrotation Zrotation
   JOINT RightAnkle
   {
    OFFSET 0.000000 -39.717900 0.002100
    CHANNELS 3 Yrotation Xrotation Zrotation
    JOINT RightToe
    {
     OFFSET 0.000000 -4.965400 11.033500
     CHANNELS 3 Yrotation Xrotation Zrotation
     End Site
     {
      OFFSET 0.000000 -1.423100 5.872300
     }
    }
   }
  }
 }
 JOINT LeftHip
 {
  OFFSET 7.771700 -0.012900 -0.001300
  CHANNELS 3 Yrotation Xrotation Zrotation
  JOINT LeftKnee
  {
   OFFSET 0.000000 -40.869800 0.001200
   CHANNELS 3 Yrotation Xrotation Zrotation
   JOINT LeftAnkle
   {
    OFFSET 0.000000 -39.717900 0.002100
    CHANNELS 3 Yrotation Xrotation Zrotation
    JOINT LeftToe
    {
     OFFSET 0.000000 -4.965400 11.033500
     CHANNELS 3 Yrotation Xrotation Zrotation
     End Site
     {
      OFFSET 0.000000 -1.423100 5.872300
     }
    }
   }
  }
 }
}
MOTION
Frames: 8
Frame Time: 0.008333
0.000000 85.388000 0.000000 0.000000 -5.767877 0.000000 0.000000 11.653817 0.000000 0.000000 -5.885947 0.000000 0.000000 -0.000000 0.000000 0.000000 -0.000000 0.000000 0.000000 12.528835 0.000000 0.000000 0.711642 0.000000 0.000000 -0.000000 0.000000 0.000000 0.000000 -90.000000 0.000000 -2.309062 0.000000 0.000000 2.309062 0.000000 0.000000 -0.000000 0.000000 0.000000 -0.000000 90.000000 0.000000 -2.309062 0.000000 0.000000 2.309062 0.000000 0.000000 8.520406 0.000000 0.000000 1.905762 0.000000 -0.000000 -4.658285 0.000000 0.000000 -0.000000 0.000000 0.000000 8.520406 0.000000 0.000000 1.905762 0.000000 -0.000000 -4.658285 0.000000 0.000000 -0.000000 0.000000
-86.460479 58.183412 90.595760 173.351501 -29.943147 -0.881353 2.832180 22.024359 3.169169 0.287361 3.069942 0.366571 0.577900 5.033124 0.716561 2.393282 18.648211 2.858023 -4.022934 15.044503 -1.529850 -6.956056 -7.838140 -1.366466 3.499212 -2.658674 -0.863281 18.358576 -17.699570 -26.535772 138.625083 -66.608514 -95.595074 21.603524 -14.608232 -41.627889 -5.969181 -4.166378 -2.417519 -0.021338 -4.326502 -1.775075 37.501033 -48.370885 -77.852371 3.386488 -9.188910 -3.622083 2.387803 -45.970411 -1.035150 -14.111441 67.188399 -15.219275 10.953495 24.952644 2.810448 -0.258756 -17.432912 2.485118 -5.208392 -42.335654 2.576533 28.668924 66.504671 28.837516 -14.562331 3.561435 -3.498179 -0.080015 0.144306 -0.016131
-86.464772 58.181332 90.591600 173.406598 -29.899916 -0.860837 2.816657 22.011665 3.190527 0.285339 3.068148 0.368767 0.594152 5.040648 0.739242 2.338253 18.626251 2.821833 -3.976101 14.797139 -1.708124 -6.883900 -8.336186 -1.745713 3.486183 -2.675654 -0.856308 18.403064 -17.714173 -26.516058 138.619357 -66.656453 -95.592678 21.496207 -14.611507 -41.586534 -5.971631 -4.176052 -2.413441 0.040902 -4.275591 -1.792567 37.479055 -48.401904 -77.808601 3.390282 -9.156676 -3.616713 2.382037 -46.021106 -1.061933 -14.136762 67.220279 -15.303378 10.933057 24.914904 2.829399 -0.241150 -17.426641 2.497086 -5.210454 -42.379957 2.522925 28.648136 66.504922 28.808306 -14.576783 3.551280 -3.508702 -0.061233 0.154277 -0.003432
-86.463913 58.180968 90.584623 173.423282 -29.869223 -0.848252 2.859942 22.017861 3.262517 0.271821 3.057573 0.355684 0.597233 5.042739 0.749024 2.365827 18.627552 2.867871 -4.023106 14.527159 -1.952784 -6.846888 -8.833089 -2.156999 3.413553 -2.711690 -0.896735 18.427408 -17.721221 -26.496580 138.653789 -66.717890 -95.621286 21.422887 -14.581599 -41.540076 -6.033099 -4.212034 -2.453010 0.113403 -4.212029 -1.815049 37.450134 -48.446382 -77.759564 3.390861 -9.110080 -3.599544 2.369945 -46.056748 -1.044467 -14.179522 67.235452 -15.390804 10.910280 24.903319 2.830927 -0.210300 -17.433504 2.503541 -5.193043 -42.407574 2.501366 28.633820 66.503916 28.776708 -14.571983 3.551322 -3.487193 -0.071466 0.154918 -0.007614
-86.466910 58.181299 90.575818 173.435438 -29.838685 -0.808586 2.884162 22.018484 3.291480 0.313269 3.081857 0.407382 0.554380 5.017215 0.710387 2.396259 18.630224 2.918168 -4.093654 14.256119 -2.218835 -6.842814 -9.327973 -2.598628 3.401207 -2.775015 -0.824010 18.403055 -17.650921 -26.615632 138.789505 -66.807585 -95.746108 21.372090 -14.533687 -41.487868 -6.028139 -4.245399 -2.384245 0.136161 -4.138671 -1.961575 37.416637 -48.510494 -77.701598 3.394680 -9.043883 -3.569135 2.394542 -46.088105 -1.084869 -14.192051 67.253092 -15.434198 10.906958 24.879636 2.832028 -0.213199 -17.429454 2.517457 -5.155615 -42.438874 2.446629 28.657860 66.505898 28.756827 -14.539093 3.557479 -3.426166 -0.122468 0.149861 -0.025410
-86.468447 58.182179 90.566651 173.464398 -29.804934 -0.785375 2.870033 22.001089 3.289848 0.352219 3.103137 0.459921 0.542104 5.008663 0.703248 2.405576 18.625188 2.948314 -4.159879 13.994694 -2.486192 -6.867571 -9.821745 -3.066256 3.385361 -2.825788 -0.779885 18.415625 -17.619951 -26.637485 138.748696 -66.901346 -95.691707 21.316575 -14.478553 -41.423938 -6.039195 -4.276889 -2.336170 0.203393 -4.048775 -2.079922 37.374359 -48.595801 -77.628063 3.406310 -8.960564 -3.520358 2.354424 -46.120479 -1.063048 -14.215197 67.273319 -15.535708 10.885399 24.830315 2.831486 -0.201457 -17.410724 2.538646 -5.137545 -42.471779 2.397760 28.663410 66.503816 28.746038 -14.536320 3.560584 -3.400383 -0.137947 0.147440 -0.030565
-86.470386 58.184977 90.554552 173.506675 -29.786017 -0.763847 2.844532 21.999131 3.286182 0.350363 3.101743 0.462383 0.568401 5.020506 0.745989 2.413261 18.619393 2.980160 -4.240306 13.733054 -2.766529 -6.912404 -10.315796 -3.553962 3.363928 -2.871542 -0.761717 18.439807 -17.600836 -26.630440 138.663368 -67.016052 -95.599609 21.255795 -14.418597 -41.343672 -6.060401 -4.307643 -2.309300 0.298684 -3.952579 -2.183066 37.319458 -48.707418 -77.536120 3.431809 -8.862165 -3.442835 2.292410 -46.137266 -1.037953 -14.243727 67.300918 -15.654240 10.871756 24.771177 2.847792 -0.184709 -17.392525 2.543845 -5.105803 -42.484999 2.330458 28.650246 66.497743 28.729184 -14.542711 3.553376 -3.379109 -0.140930 0.150730 -0.036762
-86.471648 58.188105 90.542492 173.532726 -29.764286 -0.737144 2.883806 22.024688 3.386584 0.327305 3.086378 0.436426 0.555472 5.011513 0.737295 2.418503 18.612389 3.012416 -4.328738 13.472012 -3.054225 -6.967644 -10.808518 -4.053625 3.352590 -2.916815 -0.746229 18.456374 -17.572090 -26.636899 138.606117 -67.152824 -95.542732 21.188115 -14.352556 -41.240396 -6.072215 -4.333958 -2.284189 0.406245 -3.853446 -2.285771 37.256796 -48.849868 -77.426212 3.478428 -8.752738 -3.331808 2.264075 -46.156883 -1.040866 -14.284636 67.326059 -15.749956 10.883943 24.715042 2.847567 -0.194637 -17.372410 2.561215 -5.030993 -42.498159 2.248469 28.606923 66.491538 28.703678 -14.550129 3.538987 -3.358776 -0.144503 0.159117 -0.040253
